#N canvas 578 278 549 213 12;
#X obj 118 152 *~;
#X obj 161 134 vsl 15 64 0 1 0 0 empty empty empty 0 -9 0 10 #fcfcfc
#000000 #000000 0 1;
#X obj 118 182 dac~;
#X obj 119 102 osc-layer1;
#X obj 12 102 osc;
#X obj 12 42 s freq;
#X obj 69 42 s amp;
#X msg 12 12 100;
#X msg 69 12 1;
#X obj 12 72 r freq;
#X obj 69 72 r amp;
#X obj 119 72 r freq;
#X obj 176 72 r amp;
#X obj 225 152 *~;
#X obj 268 134 vsl 15 64 0 1 0 0 empty empty empty 0 -9 0 10 #fcfcfc
#000000 #000000 0 1;
#X obj 225 182 dac~;
#X obj 226 72 r freq;
#X obj 283 72 r amp;
#X obj 13 152 *~;
#X obj 56 134 vsl 15 64 0 1 0 0 empty empty empty 0 -9 0 10 #fcfcfc
#000000 #000000 0 1;
#X obj 13 182 dac~;
#X obj 226 102 osc-layer2;
#X obj 332 152 *~;
#X obj 375 134 vsl 15 64 0 1 0 0 empty empty empty 0 -9 0 10 #fcfcfc
#000000 #000000 0 1;
#X obj 332 182 dac~;
#X obj 333 72 r freq;
#X obj 390 72 r amp;
#X obj 333 102 osc-layer3;
#X obj 439 152 *~;
#X obj 482 134 vsl 15 64 0 1 0 0 empty empty empty 0 -9 0 10 #fcfcfc
#000000 #000000 0 1;
#X obj 439 182 dac~;
#X obj 440 72 r freq;
#X obj 497 72 r amp;
#X obj 440 102 osc-layer4;
#X connect 0 0 2 0;
#X connect 0 0 2 1;
#X connect 1 0 0 1;
#X connect 3 0 0 0;
#X connect 4 0 18 0;
#X connect 7 0 5 0;
#X connect 8 0 6 0;
#X connect 9 0 4 0;
#X connect 10 0 4 1;
#X connect 11 0 3 0;
#X connect 12 0 3 1;
#X connect 13 0 15 0;
#X connect 13 0 15 1;
#X connect 14 0 13 1;
#X connect 16 0 21 0;
#X connect 17 0 21 1;
#X connect 18 0 20 0;
#X connect 18 0 20 1;
#X connect 19 0 18 1;
#X connect 21 0 13 0;
#X connect 22 0 24 0;
#X connect 22 0 24 1;
#X connect 23 0 22 1;
#X connect 25 0 27 0;
#X connect 26 0 27 1;
#X connect 27 0 22 0;
#X connect 28 0 30 0;
#X connect 28 0 30 1;
#X connect 29 0 28 1;
#X connect 31 0 33 0;
#X connect 32 0 33 1;
#X connect 33 0 28 0;
