#N canvas 741 153 287 313 12;
#X msg 12 252 vis \$1 \$2;
#X obj 12 192 pack;
#X obj 12 132 f;
#X obj 48 132 + 1;
#X obj 12 162 t f f;
#X obj 12 102 until;
#X obj 105 222 + 1;
#X obj 141 222 % 2;
#X obj 55 222 t f f;
#X obj 12 72 f;
#X msg 66 102 0;
#X obj 12 42 t b b b;
#X obj 48 72 inlet;
#X obj 12 12 inlet;
#X obj 55 192 f 1;
#X obj 12 282 outlet;
#X connect 0 0 15 0;
#X connect 1 0 0 0;
#X connect 2 0 4 0;
#X connect 3 0 2 1;
#X connect 4 0 1 0;
#X connect 4 1 3 0;
#X connect 5 0 2 0;
#X connect 6 0 7 0;
#X connect 7 0 14 1;
#X connect 8 0 1 1;
#X connect 8 1 6 0;
#X connect 9 0 5 0;
#X connect 10 0 2 1;
#X connect 11 0 9 0;
#X connect 11 1 10 0;
#X connect 11 2 14 0;
#X connect 12 0 9 1;
#X connect 13 0 11 0;
#X connect 14 0 8 0;
