#N canvas 476 412 287 362 12;
#X obj 82 282 /~;
#X obj 82 312 outlet~;
#X obj 102 162 osc-layer-amp-in;
#X obj 82 72 osc-layer-freq-in;
#X obj 100 252 osc-layer-amp-out;
#X obj 82 12 inlet;
#X obj 102 102 inlet;
#X obj 132 12 loadbang;
#X obj 102 132 t f f;
#X msg 132 42 8;
#X obj 82 222 clone osc 8;
#X obj 62 192 open-close-all;
#X obj 62 166 bng 15 250 50 0 empty empty empty 17 7 0 10 #fcfcfc #000000
#000000;
#X floatatom 118 282 5 0 0 0 - - - 0;
#X connect 0 0 1 0;
#X connect 2 0 10 1;
#X connect 3 0 10 0;
#X connect 4 0 0 1;
#X connect 4 0 13 0;
#X connect 5 0 3 0;
#X connect 6 0 8 0;
#X connect 7 0 9 0;
#X connect 8 0 2 0;
#X connect 8 1 4 0;
#X connect 9 0 3 1;
#X connect 9 0 2 1;
#X connect 9 0 4 1;
#X connect 9 0 11 1;
#X connect 10 0 0 0;
#X connect 11 0 10 0;
#X connect 12 0 11 0;
