#N canvas 182 182 286 317 12;
#X obj 92 133 f;
#X obj 147 133 + 1;
#X obj 92 255 pack;
#X obj 117 195 f;
#X obj 117 225 *;
#X obj 92 164 t f f;
#X obj 147 164 t b f f;
#X obj 92 103 until;
#X msg 142 103 0;
#X obj 92 12 inlet;
#X obj 92 43 t b b f;
#X obj 92 73 f;
#X obj 156 43 inlet;
#X obj 92 285 outlet;
#X connect 0 0 5 0;
#X connect 1 0 6 0;
#X connect 2 0 13 0;
#X connect 3 0 4 0;
#X connect 4 0 2 1;
#X connect 5 0 2 0;
#X connect 5 1 1 0;
#X connect 6 0 3 0;
#X connect 6 1 4 1;
#X connect 6 2 0 1;
#X connect 7 0 0 0;
#X connect 8 0 0 1;
#X connect 9 0 10 0;
#X connect 10 0 11 0;
#X connect 10 1 8 0;
#X connect 10 2 3 1;
#X connect 11 0 7 0;
#X connect 12 0 11 1;
