#N canvas 706 489 286 326 12;
#X obj 82 262 /~;
#X obj 82 292 outlet~;
#X obj 102 162 osc-layer-amp-in;
#X obj 82 72 osc-layer-freq-in;
#X obj 100 232 osc-layer-amp-out;
#X obj 82 12 inlet;
#X obj 102 102 inlet;
#X msg 132 42 8;
#X obj 132 12 loadbang;
#X obj 102 132 t f f;
#X obj 82 202 clone osc-layer4 8;
#X connect 0 0 1 0;
#X connect 2 0 10 1;
#X connect 3 0 10 0;
#X connect 4 0 0 1;
#X connect 5 0 3 0;
#X connect 6 0 9 0;
#X connect 7 0 3 1;
#X connect 7 0 2 1;
#X connect 7 0 4 1;
#X connect 8 0 7 0;
#X connect 9 0 2 0;
#X connect 9 1 4 0;
#X connect 10 0 0 0;
