#N canvas 208 208 287 466 12;
#X obj 122 160 f;
#X obj 122 281 /;
#X obj 122 371 +;
#X obj 140 221 f;
#X obj 176 221 + 1;
#X obj 140 251 t f f;
#X obj 122 191 t f b;
#X obj 154 341 f;
#X obj 122 311 t f b;
#X obj 122 401 t f f;
#X obj 122 130 until;
#X msg 183 130 0;
#X obj 122 431 outlet;
#X obj 122 12 inlet;
#X obj 122 100 f;
#X obj 140 72 inlet;
#X obj 122 42 t b b f;
#X connect 0 0 6 0;
#X connect 1 0 8 0;
#X connect 2 0 9 0;
#X connect 3 0 4 0;
#X connect 4 0 5 0;
#X connect 5 0 1 1;
#X connect 5 1 3 1;
#X connect 6 0 1 0;
#X connect 6 1 3 0;
#X connect 7 0 2 1;
#X connect 8 0 2 0;
#X connect 8 1 7 0;
#X connect 9 0 12 0;
#X connect 9 1 7 1;
#X connect 10 0 0 0;
#X connect 11 0 3 1;
#X connect 11 0 7 1;
#X connect 13 0 16 0;
#X connect 14 0 10 0;
#X connect 15 0 14 1;
#X connect 16 0 14 0;
#X connect 16 1 11 0;
#X connect 16 2 0 1;
