#N canvas 1252 339 286 358 12;
#X obj 82 262 /~;
#X obj 82 292 outlet~;
#X obj 102 132 osc-layer-amp-in;
#X obj 82 72 osc-layer-freq-in;
#X obj 82 12 inlet;
#X obj 102 102 inlet;
#X obj 132 12 loadbang;
#X msg 132 42 8;
#X obj 62 162 open-close-all;
#X obj 62 136 bng 15 250 50 0 empty empty empty 17 7 0 10 #fcfcfc #000000
#000000;
#X obj 82 192 clone osc-layer2 8;
#X connect 0 0 1 0;
#X connect 2 0 10 1;
#X connect 3 0 10 0;
#X connect 4 0 3 0;
#X connect 5 0 2 0;
#X connect 6 0 7 0;
#X connect 7 0 3 1;
#X connect 7 0 2 1;
#X connect 7 0 8 1;
#X connect 7 0 0 1;
#X connect 8 0 10 0;
#X connect 9 0 8 0;
#X connect 10 0 0 0;
