#N canvas 338 182 233 166 12;
#X obj 62 12 inlet;
#X obj 62 42 osc~;
#X obj 62 102 *~;
#X obj 62 132 outlet~;
#X obj 80 72 inlet;
#X floatatom 102 13 5 0 0 0 - - - 0;
#X floatatom 120 73 5 0 0 0 - - - 0;
#X connect 0 0 1 0;
#X connect 0 0 5 0;
#X connect 1 0 2 0;
#X connect 2 0 3 0;
#X connect 4 0 2 1;
#X connect 4 0 6 0;
