#N canvas 180 204 287 167 12;
#X obj 122 12 inlet;
#X obj 122 42 osc~;
#X obj 122 102 *~;
#X obj 122 132 outlet~;
#X obj 140 72 inlet;
#X connect 0 0 1 0;
#X connect 1 0 2 0;
#X connect 2 0 3 0;
#X connect 4 0 2 1;
